<?xml version="1.0" encoding="UTF-8"?><svg id="uuid-266dc623-249a-4649-ba4a-a4c0fbacf590" xmlns="http://www.w3.org/2000/svg" viewBox="0 0 45.680824549002864 46.05650426201737"><g id="uuid-952a129b-2e97-47c0-99f1-07c71dee8114"><path d="M18.612767607836759,36.820496284583896c.959197998046875.41357421875,2.620819091796875.986083984375,4.755096435546875,1.0086669921875,2.2733154296875.0240478515625,4.03778076171875-.58685302734375,5.016326904296875-1.0086669921875" style="fill:none; stroke:#214c9f; stroke-linecap:round; stroke-linejoin:round; stroke-width:2px;"/><path d="M18.612767607836759,40.387922576407618c.959197998046875.41357421875,2.620819091796875.986083984375,4.755096435546875,1.0086669921875,2.2733154296875.0240478515625,4.03778076171875-.58685302734375,5.016326904296875-1.0086669921875" style="fill:none; stroke:#214c9f; stroke-linecap:round; stroke-linejoin:round; stroke-width:2px;"/><path d="M19.432224016266446,44.216442767119588c.798316431643798.344207447476947,2.181241985082124.820692963610782,3.957547478493325.839488234503733,1.892023404472639.020014423598695,3.360543637515548-.488423053053339,4.174963044491051-.839488234503733" style="fill:none; stroke:#214c9f; stroke-linecap:round; stroke-linejoin:round; stroke-width:2px;"/><path d="M25.241862613707781,5.92767256726529v25.82633085629368c0,1.361388758040448,1.64779566499692,2.041146745696096,2.607664708634729,1.07572933877691,4.928063934885358-4.956549788414122,9.856127869768898-9.913091449160675,14.784191804654256-14.869644504392454.088786279797205-.089299552969351.16937892142596-.188870940227389.236007536236684-.295726175613709,2.914808423129216-4.674606264108661,2.193414702828704-10.580014522972306-1.31794363339759-13.919969860054152C37.412770920384901-.192554992176156,30.020228084671544.02760791017954,25.617672817311359,4.915121707728758c-.248026360013682.275347425099426-.375810203603578.641965808879831-.375810203603578,1.012550859536532Z" style="fill:none; stroke:#214c9f; stroke-linecap:round; stroke-linejoin:round; stroke-width:2px;"/><path d="M5.992307575196719,12.190776910529166c-.154002052026044-.5263671875-.545762949854179-2.1632080078125.449304576363829-3.910614013671875,1.456190094142585-2.5572509765625,4.648851808145992-3.18499755859375,5.054713300266485-3.25885009765625.351999430892647-2.4703369140625,2.992676261789711-4.21685791015625,5.728670164811774-4.00372314453125,2.40464834523118.18731689453125,4.43572298214076,1.853546142578125,4.717734867993386,4.00372314453125v25.418945312500909c-1.052758469446417,2.392425537109375-3.873135041185378,3.876708984375-6.739605461631072,3.63128662109375-2.432186842700503-.208221435546875-4.543042126691034-1.631378173828125-5.391691732538675-3.63128662109375-.388152912864825-.012603759765625-4.09049772709659-.18646240234375-6.290300885267243-2.886383056640625-2.059091744628859-2.527252197266534-1.140565042260278-5.229003906250909-1.010972112991112-5.586578369141534-.292209965798065-.334106445311591-2.044144378355668-2.408843994139716-1.347913729091488-5.12103271484375.844747091499812-3.290802001952216,4.533396289342818-4.5584716796875,4.830061012084116-4.655487060546875Z" style="fill:none; stroke:#214c9f; stroke-linecap:round; stroke-linejoin:round; stroke-width:2px;"/><path d="M13.29354375728235,24.760570611701951c-.450151348345571.145294189453125-1.980857376817767.6922607421875-2.940839090082591,2.10589599609375-1.110780758232977,1.635711669921875-.647522852268594,3.239105224608466-.541271376737313,3.57379150390625" style="fill:none; stroke:#214c9f; stroke-linecap:round; stroke-linejoin:round; stroke-width:2px;"/><path d="M6.995806005051236,19.024578180061326c-.526655356021365.071441650390625-1.314006033677288.237274169921875-2.136221627247323.657714843749091-1.463590144933733.748413085938409-2.114720982164727,1.831756591797784-2.349424085599821,2.285003662109375" style="fill:none; stroke:#214c9f; stroke-linecap:round; stroke-linejoin:round; stroke-width:2px;"/><path d="M11.265009436316177,11.811168756232291c-.56019488970469-.055450439453125-1.194243022622686-.087615966796875-1.888853760271559-.071929931640625-1.350343596514904.030487060546875-2.499118645374438.232147216797784-3.383848100847899.4515380859375" style="fill:none; stroke:#214c9f; stroke-linecap:round; stroke-linejoin:round; stroke-width:2px;"/><path d="M13.648598930541084,7.641216363654166c-.333039101752547-.13177490234375-1.236728886366109-.535125732421875-1.770011153543237-1.416595458984375-.287166150084886-.474639892578125-.363301996030714-.916595458983466-.382262325170814-1.20330810546875" style="fill:none; stroke:#214c9f; stroke-linecap:round; stroke-linejoin:round; stroke-width:2px;"/><path d="M8.628657657653093,15.585431107543627c-1.034088134765625.676910400390625-1.47589111328125,1.97918701171875-1.069091796875,3.137176513671875.413558959960938,1.17724609375,1.603851318359375,1.919845581054688,2.85198974609375,1.773330688476562" style="fill:none; stroke:#214c9f; stroke-linecap:round; stroke-linejoin:round; stroke-width:2px;"/></g></svg>